<svg xmlns="http://www.w3.org/2000/svg" version="1.0" viewBox="0 0 192 192">
  <path fill="#fff" d="M-19.2-19.2h230.4v230.4H-19.2z"/>
  <path fill="#fff" d="M-19.2-19.2h230.4v230.4H-19.2z"/>
  <path fill="#00c300" d="M-19.2-19.2h230.4v230.4H-19.2z"/>
  <path fill="#fff" d="M59.562 124.29c-3.762 0-7-.461-9.719-1.376-2.71-.925-4.933-2.203-6.672-3.828-1.742-1.625-3-3.53-3.78-5.718-.782-2.188-1.122-4.567-1.016-7.141l11.859-2.61c0 2.126.363 4 1.094 5.626.726 1.625 1.832 2.89 3.312 3.796 1.488.899 3.27 1.344 5.344 1.344 1.562 0 2.914-.222 4.062-.672 1.157-.445 2.055-1.093 2.704-1.937.644-.844.968-1.879.968-3.11 0-1.507-.465-2.769-1.39-3.78-.93-1.009-2.235-1.93-3.922-2.766-1.68-.844-3.664-1.688-5.953-2.532a182.864 182.864 0 0 1-6.485-2.64c-2.125-.926-4.043-2.035-5.75-3.328a14.096 14.096 0 0 1-4.03-4.704c-.981-1.851-1.47-4.066-1.47-6.64 0-3.133.754-5.863 2.266-8.188 1.508-2.332 3.75-4.172 6.719-5.515 2.968-1.344 6.664-2.016 11.093-2.016 4.657 0 8.493.746 11.516 2.234 3.031 1.481 5.3 3.524 6.813 6.125 1.507 2.606 2.238 5.532 2.187 8.782l-11.86 2.437c.063-1.394-.09-2.68-.452-3.86-.368-1.175-.93-2.187-1.688-3.03-.75-.844-1.687-1.489-2.812-1.938-1.125-.445-2.414-.672-3.86-.672-1.523 0-2.828.227-3.922.672-1.086.45-1.906 1.04-2.468 1.766-.563.73-.844 1.574-.844 2.531 0 1.344.488 2.496 1.469 3.453.976.95 2.28 1.762 3.906 2.438A78.69 78.69 0 0 0 62 89.414c2.125.782 4.28 1.653 6.468 2.61a28.88 28.88 0 0 1 6.047 3.531 15.992 15.992 0 0 1 4.453 5.172c1.125 2.043 1.688 4.523 1.688 7.437 0 3.075-.746 5.829-2.235 8.266-1.48 2.438-3.777 4.36-6.89 5.766-3.106 1.394-7.094 2.093-11.969 2.093Zm25.113-.579-.578-12.53c.5.116 1 .187 1.5.218.508.023.957.031 1.344.031 1.738 0 3.18-.234 4.328-.703 1.156-.477 2.008-1.316 2.563-2.516.562-1.207.843-2.96.843-5.265V67.649h13.532v35.547c0 4.824-.704 8.761-2.11 11.812-1.398 3.055-3.512 5.293-6.344 6.719-2.824 1.426-6.418 2.14-10.78 2.14-.513 0-1.075-.015-1.688-.046a367.6 367.6 0 0 1-2.61-.11Zm33.19-.593v-55.47h13.281v55.47Zm9.328 0v-10.594h26.563v10.594Zm0-23.204v-9.75h23.375v9.75Zm0-21.671V67.649h26.484v10.594Zm0 0"/>
</svg>